<?xml version="1.0" standalone="no"?>
<!DOCTYPE svg PUBLIC "-//W3C//DTD SVG 20010904//EN"
 "http://www.w3.org/TR/2001/REC-SVG-20010904/DTD/svg10.dtd">
<svg version="1.0" xmlns="http://www.w3.org/2000/svg"
 width="476.000000pt" height="480.000000pt" viewBox="0 0 476.000000 480.000000"
 preserveAspectRatio="xMidYMid meet">

<g transform="translate(0.000000,480.000000) scale(0.100000,-0.100000)"
fill="#FFF" stroke="none">
<path d="M4050 4236 c0 -2 8 -10 18 -17 15 -13 16 -12 3 4 -13 16 -21 21 -21
13z"/>
<path d="M4103 4213 c4 -6 0 -19 -9 -27 -8 -9 -12 -17 -7 -17 64 -10 92 -3 66
16 -15 11 -19 11 -26 -1 -4 -8 -13 -14 -20 -14 -8 0 -8 3 -2 8 13 9 13 27 1
39 -5 4 -6 3 -3 -4z"/>
<path d="M4050 4200 c0 -5 5 -10 11 -10 5 0 7 5 4 10 -3 6 -8 10 -11 10 -2 0
-4 -4 -4 -10z"/>
<path d="M4171 4147 c-8 -11 -7 -18 7 -31 10 -9 22 -13 25 -9 4 3 7 2 7 -3 0
-6 -4 -14 -10 -20 -6 -6 -4 -20 6 -38 14 -29 8 -45 -19 -46 -5 0 -6 -4 -3 -9
13 -21 14 -80 1 -85 -15 -5 -9 -46 7 -46 7 0 6 -5 -1 -13 -8 -10 -7 -17 2 -28
6 -7 8 -10 3 -6 -5 4 -16 1 -24 -6 -13 -10 -15 -9 -10 4 5 13 2 16 -13 12 -35
-10 -15 -30 24 -24 4 0 7 -4 7 -9 0 -5 -4 -10 -8 -10 -5 0 -9 -7 -9 -15 0 -22
4 -19 36 26 18 24 27 47 24 57 -3 9 -2 14 2 9 13 -11 35 63 34 113 -1 54 -17
110 -30 110 -6 0 -8 4 -4 10 8 13 -17 50 -33 50 -7 0 -10 5 -7 10 9 15 -1 12
-14 -3z m20 -24 c13 -16 12 -17 -3 -4 -17 13 -22 21 -14 21 2 0 10 -8 17 -17z
m54 -102 c3 -5 1 -12 -5 -16 -5 -3 -10 1 -10 9 0 18 6 21 15 7z m-15 -55 c0
-12 5 -27 11 -33 6 -6 8 -16 4 -22 -15 -26 -40 27 -36 77 2 22 21 2 21 -22z"/>
<path d="M4092 3990 c7 -10 14 -18 15 -16 6 6 -9 36 -18 36 -5 0 -4 -9 3 -20z"/>
<path d="M4087 3930 c-3 -11 -3 -20 -1 -20 2 0 8 9 14 20 6 11 7 20 2 20 -6 0
-12 -9 -15 -20z"/>
<path d="M4020 3858 c-12 -8 -12 -9 2 -5 9 3 19 1 22 -6 3 -9 5 -9 5 0 1 18
-13 23 -29 11z"/>
<path d="M4126 3751 c-4 -5 -2 -12 3 -15 5 -4 12 -2 15 3 4 5 2 12 -3 15 -5 4
-12 2 -15 -3z"/>
<path d="M4088 3728 c-7 -17 15 -19 29 -3 4 4 3 5 -4 2 -6 -4 -13 -2 -15 5 -3
8 -6 6 -10 -4z"/>
<path d="M4007 3699 c7 -7 15 -10 18 -7 3 3 -2 9 -12 12 -14 6 -15 5 -6 -5z"/>
<path d="M4075 3530 c6 -8 10 -18 10 -22 0 -3 2 -8 5 -10 3 -1 4 -1 3 1 -2 2
3 11 9 20 7 9 8 13 4 9 -5 -4 -16 -2 -24 5 -13 10 -14 9 -7 -3z"/>
<path d="M4117 3513 c-4 -3 -1 -15 5 -26 9 -17 8 -19 -6 -14 -11 4 -15 3 -11
-4 4 -6 13 -8 19 -6 14 6 41 -32 37 -51 -1 -8 6 -24 16 -35 13 -16 14 -18 2
-9 -14 10 -18 10 -23 -4 -9 -22 -8 -26 6 -18 7 4 8 3 4 -5 -11 -17 -14 -121
-4 -115 4 3 5 -2 2 -10 -3 -9 -9 -14 -13 -12 -3 2 -6 -20 -6 -50 0 -37 4 -54
13 -54 6 0 12 -4 12 -10 0 -5 -8 -7 -17 -4 -15 5 -16 4 -3 -5 10 -7 11 -11 3
-11 -7 0 -17 -10 -24 -21 -9 -18 -5 -17 25 7 41 33 46 54 14 55 -13 0 -18 3
-11 5 7 3 9 13 6 22 -4 9 5 4 20 -13 15 -16 26 -25 25 -20 -1 6 6 23 17 39 14
21 16 31 7 34 -6 2 -12 8 -12 13 0 4 7 5 17 2 10 -4 14 -2 9 5 -3 6 -2 13 4
17 24 15 4 165 -22 165 -5 0 -7 -4 -4 -8 3 -5 -1 -9 -9 -9 -8 0 -12 4 -9 9 3
4 1 8 -5 8 -6 0 -8 7 -4 16 4 10 0 22 -10 29 -10 7 -13 16 -6 26 7 11 9 11 9
-4 0 -10 7 -20 15 -23 10 -4 14 -14 10 -28 -2 -11 -2 -15 1 -8 3 6 11 9 16 6
14 -9 3 11 -35 59 -26 34 -59 54 -40 25 11 -19 13 -39 2 -32 -5 3 -7 9 -4 14
3 4 -2 11 -11 14 -9 3 -14 13 -10 21 5 15 -7 29 -17 18z m102 -353 c0 -3 -3
-12 -8 -19 -8 -12 -13 -11 -30 10 -26 30 -28 50 -2 21 25 -29 32 -28 26 6 -4
22 -4 24 4 7 5 -11 10 -22 10 -25z"/>
<path d="M4000 3426 c0 -2 7 -7 16 -10 8 -3 12 -2 9 4 -6 10 -25 14 -25 6z"/>
<path d="M4030 3400 c-8 -5 -12 -12 -9 -15 4 -3 12 1 19 10 14 17 11 19 -10 5z"/>
<path d="M3925 3380 c-3 -6 1 -7 9 -4 18 7 21 14 7 14 -6 0 -13 -4 -16 -10z"/>
<path d="M4045 3381 c-3 -6 3 -14 13 -20 14 -7 19 -6 19 4 0 7 -7 11 -15 7
-10 -3 -13 -1 -8 6 4 7 5 12 2 12 -3 0 -7 -4 -11 -9z"/>
<path d="M4130 3335 c0 -14 -3 -15 -15 -5 -9 7 -15 8 -15 2 0 -17 30 -23 37
-6 3 8 3 18 -1 21 -3 4 -6 -2 -6 -12z"/>
<path d="M4094 3277 c3 -10 1 -27 -4 -38 -6 -11 -7 -19 -2 -19 15 0 22 42 11
59 -9 14 -10 13 -5 -2z"/>
<path d="M4123 3234 c-15 -16 -16 -24 -4 -24 8 0 24 30 19 35 -2 2 -9 -3 -15
-11z"/>
<path d="M4055 3190 c-3 -5 -1 -10 4 -10 6 0 11 5 11 10 0 6 -2 10 -4 10 -3 0
-8 -4 -11 -10z"/>
<path d="M4036 3166 c3 -9 14 -16 23 -16 14 0 14 -2 1 -11 -12 -8 -12 -10 -1
-7 8 2 15 12 17 21 1 9 -2 14 -7 11 -6 -3 -17 0 -25 7 -12 10 -13 9 -8 -5z"/>
<path d="M3982 3161 c-11 -7 -10 -9 3 -14 9 -4 14 -3 10 2 -3 5 1 12 7 14 7 3
9 6 3 6 -5 0 -16 -3 -23 -8z"/>
<path d="M4115 3100 c-3 -5 -1 -10 4 -10 6 0 11 5 11 10 0 6 -2 10 -4 10 -3 0
-8 -4 -11 -10z"/>
<path d="M4076 3029 c2 -4 -2 -10 -8 -12 -10 -4 -10 -6 0 -6 7 -1 20 5 28 13
12 13 12 15 -5 13 -11 0 -18 -4 -15 -8z"/>
<path d="M3936 2998 c3 -5 23 -7 44 -6 21 2 36 5 33 8 -8 9 -82 7 -77 -2z"/>
<path d="M3968 2863 c12 -2 30 -2 40 0 9 3 -1 5 -23 4 -22 0 -30 -2 -17 -4z"/>
<path d="M4055 2834 c-16 -8 -22 -12 -12 -9 10 3 30 2 44 -1 19 -5 22 -9 11
-16 -9 -7 -7 -7 9 -3 20 5 21 2 21 -40 -1 -32 -5 -45 -16 -45 -9 0 -12 -6 -8
-16 3 -9 6 -20 6 -26 0 -6 7 -8 15 -5 8 4 17 2 20 -3 4 -6 -1 -10 -11 -10 -11
0 -15 -6 -11 -20 3 -11 1 -23 -4 -26 -5 -3 -9 -14 -9 -25 0 -10 -5 -19 -12
-19 -6 0 -8 -3 -5 -7 4 -3 2 -12 -4 -20 -8 -9 -8 -13 -1 -13 6 0 14 9 17 20 3
11 13 20 21 20 8 0 15 11 15 28 2 23 2 24 6 5 2 -13 11 -23 19 -23 19 0 18
-28 -3 -48 -15 -16 -16 -15 -11 11 3 15 1 27 -3 27 -5 0 -9 -8 -9 -17 0 -14
-2 -15 -9 -5 -6 10 -10 9 -14 -7 -4 -15 0 -21 11 -22 14 0 13 -3 -4 -15 -18
-12 -20 -21 -14 -64 3 -27 3 -55 -2 -62 -8 -13 -12 -3 -8 17 1 6 -2 6 -6 2
-12 -12 -14 -38 -1 -30 6 4 8 0 4 -10 -3 -9 -1 -19 5 -23 7 -5 8 -2 3 6 -6 10
-4 12 8 7 10 -4 20 0 25 9 5 9 13 17 18 17 5 1 7 8 6 16 -2 7 1 10 7 6 6 -3
11 -1 11 5 0 6 5 8 13 4 8 -5 7 -2 -2 10 -11 13 -16 14 -22 4 -5 -7 -7 0 -4
17 2 17 4 34 4 38 1 5 6 5 12 2 6 -4 21 3 35 16 26 24 34 20 9 -4 -12 -12 -12
-16 -1 -20 13 -5 16 5 17 58 0 27 1 28 10 10 l9 -20 -4 20 c-3 11 -8 30 -12
43 -4 13 -2 22 5 22 15 0 14 34 -4 76 -8 19 -15 38 -16 42 -5 23 -68 87 -98
99 -20 9 -38 19 -41 23 -3 4 -18 2 -35 -6z m129 -75 c-3 -5 -10 -6 -16 -3 -7
5 -8 2 -4 -5 5 -7 14 -10 21 -7 7 2 17 0 23 -6 6 -6 8 -16 6 -23 -3 -7 -1 -16
5 -20 6 -3 11 -11 11 -16 0 -17 -21 1 -30 27 -11 27 -33 34 -23 7 9 -27 34
-53 52 -54 11 0 12 -2 3 -6 -20 -8 -62 25 -62 50 0 17 -2 19 -10 7 -5 -8 -13
-11 -17 -6 -4 4 -1 13 8 19 15 11 15 14 0 27 -14 14 -14 15 2 18 10 2 14 8 10
15 -4 7 0 6 10 -2 9 -7 14 -17 11 -22z m2 -109 c9 0 14 -11 14 -32 l-1 -33
-19 39 c-11 22 -20 42 -19 45 0 3 3 0 6 -6 2 -7 11 -13 19 -13z m-35 -202 c-4
-32 -3 -62 1 -68 5 -5 5 -8 2 -5 -4 2 -15 0 -26 -6 -17 -9 -18 -8 -10 8 5 10
10 37 9 60 0 24 6 50 13 58 7 9 14 14 15 13 1 -2 -1 -29 -4 -60z"/>
<path d="M4026 2712 c-7 -12 6 -27 29 -35 l20 -7 -20 16 c-11 8 -19 20 -17 25
3 11 -5 12 -12 1z"/>
<path d="M4088 2613 c5 -21 7 -23 10 -9 2 10 0 22 -6 28 -6 6 -7 0 -4 -19z"/>
<path d="M3857 2561 c-3 -13 4 -27 21 -43 16 -14 21 -16 12 -5 -8 11 -16 28
-17 40 -5 29 -10 31 -16 8z"/>
<path d="M3920 2480 c0 -5 5 -10 11 -10 5 0 7 5 4 10 -3 6 -8 10 -11 10 -2 0
-4 -4 -4 -10z"/>
<path d="M4025 2481 c-3 -5 -1 -12 5 -16 5 -3 10 1 10 9 0 18 -6 21 -15 7z"/>
<path d="M3997 2459 c7 -7 15 -10 18 -7 3 3 -2 9 -12 12 -14 6 -15 5 -6 -5z"/>
<path d="M4195 2460 c-3 -6 -11 -7 -17 -4 -6 4 -6 -2 1 -15 14 -24 24 -26 40
-7 8 10 8 16 -3 25 -10 8 -16 9 -21 1z"/>
<path d="M4065 2450 c-3 -5 1 -10 9 -10 9 0 16 5 16 10 0 6 -4 10 -9 10 -6 0
-13 -4 -16 -10z"/>
<path d="M3990 2310 c-21 -7 -21 -8 -5 -9 11 0 27 4 35 9 18 11 5 11 -30 0z"/>
<path d="M635 866 c-16 -7 -41 -26 -55 -41 -25 -26 -25 -28 -28 -241 l-3 -214
35 0 35 0 3 196 3 196 28 24 c38 32 90 32 122 -1 58 -57 9 -125 -89 -125 -46
0 -46 0 -46 -35 l0 -35 64 0 c79 0 116 -24 116 -74 0 -54 -33 -76 -113 -76
l-67 0 0 -35 0 -35 76 0 c123 0 174 45 174 153 0 46 -4 60 -28 85 -28 30 -28
31 -10 54 12 16 18 41 18 79 0 46 -4 61 -25 83 -49 53 -144 71 -210 42z"/>
<path d="M2672 864 c-18 -10 -45 -33 -60 -52 -27 -35 -27 -36 -30 -239 l-3
-203 38 0 38 0 0 183 c0 198 6 225 52 246 58 26 114 -2 134 -69 20 -65 11 -72
-83 -69 l-83 2 -3 -36 -3 -37 90 0 91 0 0 -110 0 -110 35 0 35 0 0 193 c0 180
-2 194 -23 231 -12 22 -34 48 -49 59 -38 28 -131 34 -176 11z"/>
<path d="M1340 611 l0 -188 26 -27 c24 -23 35 -26 95 -26 l69 0 0 35 0 35 -60
0 -60 0 0 105 0 105 60 0 60 0 0 35 0 35 -60 0 -60 0 0 40 c0 39 -1 40 -35 40
l-35 0 0 -189z"/>
<path d="M1570 625 c0 -235 10 -255 129 -255 l61 0 0 35 0 34 -57 3 -58 3 -3
103 -3 102 61 0 60 0 0 35 0 35 -60 0 -60 0 0 40 c0 39 -1 40 -35 40 l-35 0 0
-175z"/>
<path d="M1025 708 c-93 -51 -130 -159 -85 -248 57 -112 210 -133 293 -41 30
33 57 96 45 105 -12 10 -68 14 -68 5 0 -26 -33 -77 -56 -88 -58 -26 -133 2
-152 58 -13 38 4 43 18 6 5 -14 12 -25 14 -25 7 0 218 118 228 128 12 12 -33
69 -73 91 -41 23 -130 28 -164 9z m130 -69 c4 -6 0 -16 -9 -22 -36 -27 -145
-81 -151 -76 -9 9 14 61 37 87 17 17 33 22 69 22 26 0 51 -5 54 -11z"/>
<path d="M1885 704 c-67 -35 -96 -86 -97 -171 -2 -165 225 -236 323 -100 30
41 39 97 17 97 -7 0 -22 3 -34 6 -17 5 -22 0 -27 -23 -9 -47 -38 -74 -84 -80
-48 -6 -95 16 -112 54 -16 34 -14 48 4 33 8 -7 15 -19 15 -26 0 -8 3 -14 6
-14 15 0 233 126 234 134 0 20 -55 79 -86 92 -44 19 -122 18 -159 -2z m135
-64 c8 -5 12 -11 10 -13 -20 -16 -162 -88 -167 -84 -10 11 8 59 32 83 18 18
35 24 67 24 24 0 50 -4 58 -10z"/>
<path d="M2190 545 l0 -175 35 0 35 0 0 108 c0 89 3 112 20 140 15 25 27 32
50 32 28 0 30 3 30 35 0 33 -2 35 -33 35 -18 0 -39 -6 -46 -12 -11 -10 -14
-10 -18 0 -3 6 -20 12 -39 12 l-34 0 0 -175z"/>
<path d="M3080 713 c-37 -14 -74 -49 -91 -87 -16 -35 -19 -67 -19 -228 l0
-188 35 0 35 0 0 170 c0 181 7 217 49 255 35 30 93 26 131 -10 26 -25 30 -36
30 -83 0 -46 -4 -58 -29 -83 -34 -33 -78 -38 -125 -14 -15 8 -30 15 -32 15 -2
0 -4 -18 -4 -40 0 -38 2 -40 42 -51 109 -29 202 29 218 137 19 123 -54 215
-169 213 -31 0 -63 -3 -71 -6z"/>
<path d="M3449 697 c-18 -12 -44 -38 -56 -56 -22 -32 -23 -43 -23 -232 l0
-199 35 0 35 0 0 183 c0 164 2 185 20 215 26 43 63 57 113 42 52 -15 80 -60
74 -120 -9 -81 -88 -124 -157 -85 -36 21 -40 19 -40 -19 0 -48 21 -61 99 -61
54 0 72 4 100 24 99 71 91 248 -15 308 -54 31 -139 31 -185 0z"/>
<path d="M3823 709 c-40 -12 -73 -53 -73 -91 0 -45 45 -83 127 -107 39 -12 76
-28 83 -37 24 -28 -3 -37 -109 -35 l-101 2 0 -36 0 -35 110 0 c60 0 120 5 134
11 32 15 50 59 42 104 -8 43 -42 67 -137 95 -37 11 -69 26 -72 34 -10 27 17
36 105 36 l88 0 0 35 0 35 -82 -1 c-46 0 -97 -5 -115 -10z"/>
</g>
</svg>
