<svg width="19" height="40" viewBox="0 0 19 40" fill="none" xmlns="http://www.w3.org/2000/svg">
<path d="M3.60924 10.9071H14.5961L15.9098 7.27321L17.7112 2.29994L13.1117 4.95704L12.2719 7.27321H10.4516L10.8092 6.2883V6.28559L11.6408 3.98836V3.98566L9.10265 0L6.56723 3.98836L7.39883 6.2883L7.75639 7.27321H5.93609L5.09636 4.95975L0.494141 2.29994L2.29548 7.27321L3.60924 10.9071Z" fill="#FFC933"/>
<path d="M10.9218 16.362V23.6379H14.5624V18.1803H18.203V34.7398L14.5624 36.8422V27.2745H10.9218V38.9473L9.10151 39.9999L7.28121 38.9473V28.3243L9.10151 27.2718H4.502V27.2745H3.6406V36.8422L0 34.7398V18.1803H3.6406V23.6379H7.28121V16.362H0V12.7253H18.203V16.362H10.9218Z" fill="#FFC933"/>
</svg>
