<svg width="313" height="82" viewBox="0 0 313 82" fill="none" xmlns="http://www.w3.org/2000/svg">
<g clip-path="url(#clip0_73005_6913)">
<path d="M32.7265 45.8486L15.8226 13.9893H24.8412L36.7449 38.0036L48.6616 13.9893H57.6803L40.7633 45.8224V68.0968H32.7395L32.7265 45.8486Z" fill="#FFF"/>
<path d="M54.4404 48.809C54.4404 44.739 54.7864 41.6153 55.4785 39.4379C56.1396 37.4 57.2758 35.5517 58.7918 34.048C60.0999 32.6138 61.6699 31.4472 63.4158 30.6118C65.3651 29.6525 67.8681 29.1481 70.9248 29.0986C74.0968 29.1481 76.6531 29.6553 78.5938 30.6205C80.2953 31.4621 81.8142 32.6361 83.0621 34.0742C84.6463 35.5301 85.8131 37.3887 86.4403 39.4553C87.0805 41.6327 87.4005 44.7506 87.4005 48.809C87.4005 52.8674 87.079 55.9605 86.436 58.0886C85.787 60.1911 84.622 62.0945 83.0491 63.6223C82.4774 64.2412 81.8456 64.8007 81.1631 65.2924C80.3957 65.9712 79.5177 66.5111 78.5678 66.8885C76.6156 67.9525 74.0621 68.5092 70.9074 68.5586C67.8537 68.5092 65.3507 67.9525 63.3985 66.8885C61.6692 66.1012 60.102 64.9932 58.7788 63.6223C57.279 62.0497 56.147 60.159 55.4655 58.0886C54.7821 55.9605 54.4404 52.8674 54.4404 48.809ZM79.3724 48.8831C79.4268 46.8638 79.298 44.8436 78.9875 42.8479C78.7422 41.6613 78.1968 40.5587 77.4043 39.6472C76.743 38.7235 75.8313 38.0118 74.7787 37.5976C73.5646 37.0563 72.2477 36.7899 70.9204 36.8171C69.6183 36.8047 68.3283 37.0707 67.1356 37.5976C66.0849 38.053 65.1578 38.7558 64.4322 39.6472C63.7239 40.6023 63.2121 41.6906 62.927 42.8479C62.6184 44.1154 62.4641 46.1025 62.4641 48.809C62.4641 51.5155 62.6184 53.4779 62.927 54.6959C63.2116 55.9004 63.7225 57.0388 64.4322 58.0493C65.2159 58.8562 66.1301 59.5228 67.1356 60.0204C68.3216 60.5724 69.6142 60.8524 70.9204 60.8402C72.2519 60.8685 73.5719 60.5881 74.7787 60.0204C75.7858 59.5639 76.6819 58.8912 77.4043 58.0493C78.1988 57.0806 78.7428 55.9285 78.9875 54.6959C79.2962 52.7748 79.425 50.8286 79.3724 48.8831Z" fill="#FFF"/>
<path d="M97.1501 29.583H105.174V52.5508C105.174 55.1673 105.932 57.2022 107.449 58.6558C108.206 59.3856 109.101 59.9546 110.08 60.3292C111.059 60.7037 112.103 60.8761 113.15 60.8362C115.457 60.8362 117.346 60.1094 118.816 58.6558C120.287 57.2022 121.031 55.1673 121.048 52.5508V29.583H129.076V68.1142H121.048V63.9933H120.897C118.256 67.0371 114.804 68.5589 110.542 68.5589C107.236 68.5101 104.056 67.273 101.575 65.0704C98.6914 62.8493 97.2165 59.5643 97.1501 55.2152V29.583Z" fill="#FFF"/>
<path d="M179.823 52.9908C178.612 58.0085 176.305 61.8633 172.902 64.5553C169.399 67.2241 165.25 68.5585 160.458 68.5585C156.132 68.4567 152.518 67.4174 149.614 65.4406C146.664 63.5335 144.523 61.3313 143.19 58.8341C142.784 58.0143 142.421 57.2381 142.092 56.4924C141.744 55.5553 141.49 54.5852 141.335 53.5969C140.96 51.4195 140.771 47.2376 140.768 41.0512C140.768 34.766 140.957 30.5593 141.335 28.4313C141.627 26.6082 142.256 24.8567 143.19 23.2682C144.523 20.7681 146.665 18.5412 149.618 16.5876C152.502 14.6079 156.118 13.5904 160.466 13.5352C165.781 13.5817 170.117 15.1268 173.473 18.1706C176.779 21.1509 179.012 25.1519 179.823 29.5477H170.964C170.282 27.3678 168.994 25.4308 167.253 23.9659C165.291 22.4735 162.894 21.6764 160.436 21.6984C158.681 21.701 156.949 22.0941 155.362 22.8496C154.025 23.5209 152.845 24.4725 151.902 25.6405C150.769 26.9028 150.018 28.4661 149.739 30.1451C149.333 32.0783 149.131 35.7122 149.134 41.0468C149.137 46.3814 149.338 49.9892 149.739 51.8701C150.007 53.5746 150.758 55.1646 151.902 56.4488C152.844 57.61 154.036 58.5391 155.388 59.1655C156.943 60.0168 158.693 60.4395 160.462 60.3909C165.16 60.3909 168.67 57.9198 170.995 52.9777L179.823 52.9908Z" fill="#469FD8"/>
<path d="M184.447 48.809C184.447 44.739 184.787 41.6153 185.468 39.4379C186.111 37.4067 187.224 35.5591 188.716 34.048C189.995 32.6192 191.536 31.4525 193.254 30.6118C195.168 29.6525 197.619 29.1481 200.607 29.0986C203.704 29.1481 206.211 29.6553 208.129 30.6205C209.805 31.4655 211.296 32.6397 212.515 34.0742C214.076 35.5388 215.221 37.3962 215.833 39.4553C216.458 41.6327 216.773 44.7506 216.776 48.809C216.778 52.8674 216.463 55.9605 215.828 58.0886C215.195 60.1839 214.051 62.0862 212.502 63.6223C211.943 64.2412 211.323 64.8008 210.651 65.2924C209.906 65.9698 209.05 66.5101 208.12 66.8885C206.205 67.9525 203.698 68.5092 200.598 68.5586C197.602 68.5092 195.151 67.9525 193.245 66.8885C191.543 66.0976 190.005 64.9894 188.712 63.6223C187.238 62.0416 186.128 60.152 185.463 58.0886C184.783 55.9605 184.444 52.8674 184.447 48.809ZM208.92 48.8831C208.971 46.864 208.844 44.8443 208.54 42.8479C208.302 41.6649 207.767 40.563 206.987 39.6472C206.337 38.7251 205.435 38.0131 204.392 37.5976C203.202 37.0559 201.908 36.7893 200.603 36.8171C199.324 36.8045 198.058 37.0708 196.891 37.5976C195.856 38.0539 194.946 38.7573 194.24 39.6472C193.54 40.6038 193.037 41.6922 192.76 42.8479C192.472 44.1154 192.328 46.1025 192.328 48.809C192.328 51.5155 192.472 53.4779 192.76 54.6959C193.036 55.8988 193.539 57.0372 194.24 58.0493C195.004 58.8558 195.901 59.5227 196.891 60.0204C198.051 60.5722 199.32 60.8524 200.603 60.8402C201.912 60.8685 203.209 60.5878 204.392 60.0204C205.39 59.5629 206.276 58.89 206.987 58.0493C207.769 57.0764 208.302 55.925 208.54 54.6959C208.842 52.7741 208.97 50.8284 208.92 48.8831Z" fill="#469FD8"/>
<path d="M249.822 64.0893C247.227 66.9731 243.84 68.463 239.662 68.559C237.549 68.5728 235.463 68.0764 233.58 67.1112C231.867 66.2596 230.359 65.0424 229.159 63.5442C228.078 62.3319 227.357 60.685 226.997 58.6035C226.57 56.6209 226.356 53.3518 226.356 48.7963C226.356 44.1652 226.57 40.87 226.997 38.9106C227.255 37.1384 228.005 35.4757 229.159 34.1138C231.38 30.8869 234.881 29.2124 239.662 29.0903C241.591 29.0719 243.5 29.4876 245.25 30.3069C246.906 31.2196 248.442 32.3373 249.822 33.6341V13.9805H257.699V68.1055H249.822V64.0893ZM242.071 36.8175C240.202 36.8175 238.778 37.1271 237.797 37.7463C236.736 38.3899 235.902 39.3541 235.414 40.5022C234.922 41.7185 234.603 42.9986 234.467 44.3048C234.314 45.8014 234.239 47.3049 234.242 48.8094C234.239 50.2413 234.314 51.6723 234.467 53.0959C234.592 54.4506 234.911 55.7798 235.414 57.0424C235.928 58.1734 236.756 59.1305 237.797 59.7983C238.778 60.4902 240.202 60.8376 242.071 60.8405C243.939 60.8434 245.415 60.4713 246.496 59.7242C247.533 59.0594 248.319 58.0628 248.728 56.8941C249.252 55.6418 249.596 54.3202 249.749 52.9695C249.798 51.5537 249.822 50.1626 249.822 48.7963C249.822 47.3093 249.796 45.879 249.749 44.5141C249.586 43.2061 249.243 41.9276 248.728 40.7159C248.319 39.5461 247.533 38.5481 246.496 37.8815C245.412 37.1721 243.937 36.8175 242.071 36.8175Z" fill="#469FD8"/>
<path d="M273.781 51.7743C273.781 54.8704 274.689 57.2237 276.506 58.8342C278.193 60.471 280.412 61.2879 283.163 61.285C286.364 61.285 289.226 60.0349 291.749 57.5348L297.463 62.3315C293.455 66.5411 288.743 68.6197 283.327 68.5673C281.277 68.5767 279.237 68.2829 277.272 67.6952C276.271 67.3636 275.308 66.9251 274.399 66.387C273.415 65.9158 272.489 65.3304 271.64 64.6427C269.973 63.2066 268.625 61.2021 267.595 58.6293C266.462 56.1524 265.896 52.9342 265.896 48.9747C265.896 45.1635 266.387 41.9961 267.37 39.4727C268.168 37.1821 269.457 35.0974 271.147 33.3677C272.638 31.9016 274.433 30.7862 276.402 30.1016C278.222 29.4499 280.137 29.1109 282.069 29.0986C286.553 29.1481 290.345 30.6016 293.444 33.4593C296.593 36.3665 298.194 40.3521 298.246 45.4164V51.7917L273.781 51.7743ZM290.378 45.3989C290.274 42.39 289.452 40.1138 287.912 38.5701C286.398 37.1165 284.453 36.3897 282.077 36.3897C279.701 36.3897 277.756 37.1165 276.242 38.5701C274.754 40.1138 273.934 42.39 273.781 45.3989H290.378Z" fill="#469FD8"/>
<path d="M29.3959 0.75H5.31601H0V6.1093V30.3853H5.31601V6.1093H29.3959V0.75Z" fill="#FFF"/>
<path d="M283.608 81.7496H307.688H313V76.3903V52.1143H307.688V76.3903H283.608V81.7496Z" fill="#FFF"/>
</g>
<defs>
<clipPath id="clip0_73005_6913">
<rect width="313" height="81" fill="white" transform="translate(0 0.75)"/>
</clipPath>
</defs>
</svg>
